<?xml version="1.0" encoding="UTF-8"?>
<!DOCTYPE svg PUBLIC "-//W3C//DTD SVG 1.1//EN" "http://www.w3.org/Graphics/SVG/1.1/DTD/svg11.dtd">
<!-- Creator: CorelDRAW 2021 (64-Bit) -->
<svg xmlns="http://www.w3.org/2000/svg" xml:space="preserve" width="297mm" height="210mm" version="1.1" style="shape-rendering:geometricPrecision; text-rendering:geometricPrecision; image-rendering:optimizeQuality; fill-rule:evenodd; clip-rule:evenodd"
viewBox="0 0 29700 21000"
 xmlns:xlink="http://www.w3.org/1999/xlink"
 xmlns:xodm="http://www.corel.com/coreldraw/odm/2003">
 <defs>
  <style type="text/css">
   <![CDATA[
    .fil1 {fill:#5B5B5B}
    .fil2 {fill:#EF7F1A}
    .fil3 {fill:#009846}
    .fil0 {fill:#5B5B5B;fill-rule:nonzero}
   ]]>
  </style>
 </defs>
 <g id="Layer_x0020_1">
  <metadata id="CorelCorpID_0Corel-Layer"/>
  <g id="_1463682743296">
   <path class="fil0" d="M4968.68 10497.66l1164.62 0c43.88,305.48 172.82,532.03 385.53,679.57 212.72,147.58 521.13,221.36 923.97,221.36 341.65,0 600.92,-59.54 775.05,-178.63 174.17,-117.81 260.58,-293.84 260.58,-525.52 0,-339.17 -499.88,-618.73 -1499.61,-841.4l-34.56 -7.76c-25.26,-5.16 -66.48,-14.24 -121,-25.89 -534.44,-113.89 -915.99,-242.03 -1144.65,-384.42 -202.07,-125.57 -356.28,-296.44 -462.62,-509.99 -106.37,-213.59 -159.54,-465.99 -159.54,-757.23 0,-543.68 190.11,-960.46 568.99,-1250.42 378.88,-289.93 925.28,-434.91 1641.87,-434.91 670.03,0 1193.83,154.03 1571.39,463.39 377.57,309.37 575.65,744.27 596.94,1307.35l-1132.69 0c-21.29,-270.52 -127.63,-476.35 -319.06,-618.73 -192.79,-141.1 -465.33,-212.27 -821.61,-212.27 -308.41,0 -546.4,58.25 -713.91,176.03 -167.52,117.81 -251.26,286.08 -251.26,503.51 0,295.13 325.71,516.48 977.13,662.74 176.84,41.44 313.75,72.49 412.12,95.81 418.78,103.54 715.27,183.79 890.76,242.04 174.14,58.25 327.03,122.98 457.32,192.87 233.96,126.86 408.13,293.84 525.11,502.23 117.02,208.39 175.49,458.23 175.49,749.47 0,581.2 -200.72,1031.63 -603.55,1351.36 -402.83,319.73 -970.51,478.95 -1701.69,478.95 -721.89,0 -1288.25,-163.1 -1699.05,-489.31 -410.77,-324.89 -631.46,-789.6 -662.07,-1390.2z"/>
   <polygon class="fil0" points="10523.34,12377.17 10523.34,6641.93 14689.81,6641.93 14689.81,7639.03 11687.92,7639.03 11687.92,8859.45 14689.81,8859.45 14689.81,9840.6 11687.92,9840.6 11687.92,11316.26 14689.81,11316.26 14689.81,12377.17 "/>
   <polygon class="fil0" points="17227.87,12377.17 15249.66,6648.72 16557.84,6648.72 17778.26,10933.79 19022.62,6648.72 20314.86,6648.72 18360.56,12377.17 "/>
   <path class="fil1" d="M21797.26 11930.66c-32.27,-84.93 -52.14,-151.76 -80.41,-236.31 -31.71,-95.36 -22.41,-190.42 -45.16,-271 -112.86,-399.59 181.81,-1537.73 -81.57,-2164.84 -48.35,-115.36 -79.38,-152.76 -206.02,-66.28 -177.97,121.48 -287.29,458.97 -334.35,629.87 -26.5,96.48 -37.88,235.2 -64.85,323.88 -37.88,124.28 -76.58,551.1 -80.11,689.85 -2.8,109.97 -27.45,240.41 -27.02,354.48 0.52,129.1 -0.04,258.37 -0.04,387.43 -42.66,-0.86 -30.42,-68.12 -38.53,-119.88 -42.31,-270.79 -33.95,-833.82 -0.6,-1080.87 172.8,-1278.14 540.41,-1105.6 846.67,-1764.26 74.16,-159.39 112.03,-321.93 168.01,-485.47l111.31 -376.88c63.69,-221.01 161.98,-596.13 159.52,-822.19 -0.69,-63.34 6.08,-220.97 -48.74,-254.62 -20.81,-12.72 -51.53,-33.96 -70.36,-31.25 -79.12,11.47 -145.96,168.28 -177.07,231.97 -96.05,196.32 -190.12,333.35 -279.1,540.8 -74.34,173.1 -196.46,364.12 -281.35,538.64 -175.86,361.59 -387.09,720.5 -559.76,1080.05 -87.43,182.15 -190.38,359.56 -278.59,541.23 -44.34,91.19 -103.03,164.01 -167.8,242.7 -52.27,63.64 -115.27,193.22 -140.43,269.54 -237.48,718.51 268.16,1869.44 -57.61,2552.1 -6.73,14.18 -35.04,28.57 -42.71,42.06l-213.35 372.31 213.35 416.95 1438.96 -1.63c332.28,-342.93 610.31,-821.89 337.71,-1538.38z"/>
   <polygon class="fil1" points="4977.5,12681.4 20020.57,12681.4 20020.57,13470.66 4977.5,13470.66 "/>
   <polygon class="fil2" points="24731.26,13694.46 22764.06,13694.46 22764.06,13984.97 24731.26,13984.97 "/>
   <polygon class="fil3" points="24731.26,14227.08 22764.06,14227.08 22764.06,14517.57 24731.26,14517.57 "/>
   <path class="fil1" d="M22451.07 11930.66c32.28,-84.93 52.15,-151.76 80.41,-236.31 31.72,-95.36 22.41,-190.42 45.16,-271 112.86,-399.59 -181.8,-1537.73 81.58,-2164.84 48.35,-115.36 79.37,-152.76 206.02,-66.28 177.97,121.48 287.29,458.97 334.35,629.87 26.5,96.48 37.87,235.2 64.85,323.88 37.88,124.28 76.57,551.1 80.11,689.85 2.8,109.97 27.45,240.41 27.01,354.48 -0.51,129.1 0.05,258.37 0.05,387.43 42.66,-0.86 30.42,-68.12 38.52,-119.88 42.32,-270.79 33.96,-833.82 0.61,-1080.87 -172.8,-1278.14 -540.42,-1105.6 -846.67,-1764.26 -74.16,-159.39 -112.04,-321.93 -168.01,-485.47l-111.31 -376.88c-63.69,-221.01 -161.98,-596.13 -159.53,-822.19 0.69,-63.34 -6.07,-220.97 48.74,-254.62 20.81,-12.72 51.54,-33.96 70.37,-31.25 79.12,11.47 145.95,168.28 177.06,231.97 96.05,196.32 190.12,333.35 279.11,540.8 74.33,173.1 196.45,364.12 281.34,538.64 175.86,361.59 387.1,720.5 559.76,1080.05 87.44,182.15 190.38,359.56 278.59,541.23 44.34,91.19 103.03,164.01 167.8,242.7 52.27,63.64 115.27,193.22 140.44,269.54 237.13,717.43 -266.52,1907.88 56.1,2591.01 0.48,1.04 0.43,3.15 1.51,3.15l546.23 0 0 789.26 -1942.49 -1.63c-332.28,-342.93 -610.3,-821.89 -337.71,-1538.38z"/>
  </g>
 </g>
</svg>
